<svg width="50" height="50" viewBox="0 0 50 50" fill="none" xmlns="http://www.w3.org/2000/svg">
<g id="calendar">
<rect width="50" height="50" rx="25" fill="#FEBD1F" fill-opacity="0.2"/>
<g id="calendar_2">
<path id="vector" d="M14.5 21.2083H35.5M14.5 21.2083C14.5 21.2083 14.5 30.8333 14.5 32.5833C14.5 34.3333 15.6667 35.5 17.4167 35.5C19.1667 35.5 30.8333 35.5 32.5833 35.5C34.3333 35.5 35.5 34.3333 35.5 32.5833C35.5 30.8333 35.5 21.2083 35.5 21.2083M14.5 21.2083C14.5 21.2083 14.5 21.5 14.5 19.75C14.5 18 15.6667 16.8333 17.4167 16.8333C17.7263 16.8333 18.3462 16.8333 19.1667 16.8333M35.5 21.2083C35.5 21.2083 35.5 21.5 35.5 19.75C35.5 18 34.3333 16.8333 32.5833 16.8333C32.2737 16.8333 31.6538 16.8333 30.8333 16.8333M19.1667 16.8333V14.5M19.1667 16.8333C22.1636 16.8333 27.8364 16.8333 30.8333 16.8333M30.8333 14.5V16.8333M18.5833 26.1667H19.75M24.4167 26.1667H25.5833M30.25 26.1667H31.4167M31.4167 30.8333H30.25M25.5833 30.8333H24.4167M19.75 30.8333H18.5833" stroke="#FEBD1F" stroke-width="1.75" stroke-linecap="round" stroke-linejoin="round"/>
</g>
</g>
</svg>
