<svg width="50" height="50" viewBox="0 0 50 50" fill="none" xmlns="http://www.w3.org/2000/svg">
<g id="history">
<rect width="50" height="50" rx="25" fill="#009EFF" fill-opacity="0.2"/>
<g id="icon_13">
<path id="vector" d="M33.1666 21.5L26.1666 14.5M33.1666 21.5C33.1666 21.5 30.2499 21.5 28.4999 21.5C26.7499 21.5 26.1666 20.9167 26.1666 19.1667C26.1666 17.4167 26.1666 14.5 26.1666 14.5M33.1666 21.5C33.1666 21.5 33.1666 30.8333 33.1666 32.5833C33.1666 34.3333 31.9999 35.5 30.2499 35.5C28.4999 35.5 21.4999 35.5 19.7499 35.5C17.9999 35.5 16.8333 34.3333 16.8333 32.5833C16.8333 30.8333 16.8333 18.7433 16.8333 17.4167C16.8333 15.6667 17.9999 14.5 19.7499 14.5C21.4999 14.5 26.1666 14.5 26.1666 14.5M20.3333 26.1667H24.9999M20.3333 30.8333H28.4999" stroke="#009EFF" stroke-width="1.75" stroke-linecap="round" stroke-linejoin="round"/>
</g>
</g>
</svg>
