<svg width="50" height="50" viewBox="0 0 50 50" fill="none" xmlns="http://www.w3.org/2000/svg">
<rect width="50" height="50" rx="25" fill="#31CC31" fill-opacity="0.2"/>
<path d="M20.3333 19.1666H25M20.3333 23.8333H29.6667M20.3333 28.4999H29.6667M16.8333 13.3333H33.1667C34.4553 13.3333 35.5 14.3779 35.5 15.6666V33.588C35.5 35.2041 33.8969 36.3308 32.3763 35.7834L30.5543 35.1275C29.9849 34.9225 29.3582 34.9467 28.8064 35.1951L25.9575 36.4771C25.3486 36.7511 24.6514 36.7511 24.0425 36.4771L21.1936 35.1951C20.6418 34.9467 20.0151 34.9225 19.4457 35.1275L17.6237 35.7834C16.1031 36.3308 14.5 35.2041 14.5 33.588V15.6666C14.5 14.3779 15.5447 13.3333 16.8333 13.3333Z" stroke="#31CC31" stroke-width="1.75" stroke-linecap="round" stroke-linejoin="round"/>
</svg>
