<svg width="50" height="50" viewBox="0 0 50 50" fill="none" xmlns="http://www.w3.org/2000/svg">
<g id="purchase_orders">
<rect width="50" height="50" rx="25" fill="#31CC31" fill-opacity="0.2"/>
<g id="icon_21">
<path id="vector" d="M32.2592 22.2779L25.6481 15.6667M32.2592 22.2779C32.2592 22.2779 29.6666 22.2779 27.9166 22.2779C26.1666 22.2779 25.5833 21.5001 25.5833 19.7501C25.5833 18.0001 25.6481 15.6667 25.6481 15.6667M32.2592 22.2779C32.2592 22.2779 32.2592 30.8334 32.2592 32.5834C32.2592 34.3334 31.4166 35.5001 29.6666 35.5001C27.9166 35.5001 21.4999 35.5001 19.7499 35.5001C17.9999 35.5001 16.8333 34.3334 16.8333 32.5834C16.8333 30.8334 16.8333 20.3334 16.8333 18.5834C16.8333 16.8334 17.9999 15.6667 19.7499 15.6667C21.4999 15.6667 25.6481 15.6667 25.6481 15.6667M22.3425 28.338H24.5462M26.7499 28.338H24.5462M24.5462 28.338V26.1343M24.5462 28.338V30.5417" stroke="#31CC31" stroke-width="1.75" stroke-linecap="round" stroke-linejoin="round"/>
</g>
</g>
</svg>
