<svg width="50" height="50" viewBox="0 0 50 50" fill="none" xmlns="http://www.w3.org/2000/svg">
<g id="reminders">
<rect width="50" height="50" rx="25" fill="#FF543E" fill-opacity="0.2"/>
<g id="reminder">
<path id="vector" d="M24.9999 18.5133V22.3983M21.1687 33.5946C21.3065 34.4065 21.701 35.1411 22.2582 35.6983C22.9582 36.3983 23.9382 36.8416 24.9999 36.8416C26.9148 36.8416 28.5201 35.4337 28.8306 33.6029M21.1687 33.5946C19.5692 33.3655 17.9853 32.9934 16.4365 32.4783C14.7565 31.9183 14.1265 30.2149 15.0365 28.6866L16.5182 26.2133C16.9265 25.5366 17.2532 24.3466 17.2532 23.5533V21.1033C17.2532 16.8099 20.7299 13.3333 25.0232 13.3333C29.2932 13.3333 32.7932 16.8333 32.8049 21.1033V23.5533C32.8049 24.3349 33.1315 25.5366 33.5399 26.2133L35.0215 28.6866C35.8732 30.1099 35.1965 31.9533 33.6215 32.4783C32.0538 32.9997 30.4501 33.3746 28.8306 33.6029M21.1687 33.5946C23.7093 33.9583 26.2893 33.9611 28.8306 33.6029" stroke="#FF543E" stroke-width="1.75" stroke-linecap="round" stroke-linejoin="round"/>
</g>
</g>
</svg>
