<svg width="50" height="50" viewBox="0 0 50 50" fill="none" xmlns="http://www.w3.org/2000/svg">
<rect width="50" height="50" rx="25" fill="#FF543E" fill-opacity="0.2"/>
<path d="M24.9026 22.416C25.1834 22.979 25.5578 23.506 26.0259 23.9741C26.1363 24.0845 26.25 24.1897 26.3666 24.2896C26.7446 24.6136 27.1538 24.8828 27.584 25.0974M24.9026 22.416L20.8111 25.9341M24.9026 22.416C24.4988 21.6065 24.2883 20.7224 24.2706 19.8316M27.584 25.0974C29.8791 26.2422 32.7731 25.8328 34.7209 23.8849C36.6875 21.9183 37.2294 19.1307 36.0433 16.8253L33.1747 19.6939L30.3061 16.8253L33.1747 13.9567C30.8693 12.7706 28.0817 13.3125 26.1151 15.2791C24.8543 16.5399 24.238 18.197 24.2706 19.8316M27.584 25.0974L27.1604 25.59M17.5075 17.8495L20.8542 21.1962M20.8111 25.9341L14.1608 19.2838C13.2046 18.3276 13.2046 17.3714 14.1608 16.4152L16.0732 14.5028C17.0294 13.5466 17.9856 13.5466 18.9418 14.5028L24.2706 19.8316M20.8111 25.9341C20.8111 25.9341 15.6668 30.1378 14.5001 31.3605C13.3334 32.5833 14.1608 33.191 14.1608 33.191L16.8334 35.8637C16.8334 35.8637 17.4167 36.6666 18.7026 35.4265C19.9885 34.1865 25.3921 27.6465 25.3921 27.6465M25.3921 27.6465L29.46 31.7145L30.4163 33.6269L33.763 36.0174L35.6754 34.105L33.2849 30.7583L31.3725 29.8021L27.1604 25.59M25.3921 27.6465L27.1604 25.59" stroke="#FF543E" stroke-width="1.75" stroke-linecap="round" stroke-linejoin="round"/>
</svg>
