<svg width="50" height="50" viewBox="0 0 50 50" fill="none" xmlns="http://www.w3.org/2000/svg">
<g id="stock_control">
<rect width="50" height="50" rx="25" fill="black" fill-opacity="0.1"/>
<g id="icon_20">
<path id="vector" d="M14.5 20.8C14.5 19.05 14.5 18.35 14.5 16.6C14.5 15.55 15.55 14.5 16.6 14.5C16.8222 14.5 18.722 14.5 20.8 14.5M35.5 20.8C35.5 19.05 35.5 18.35 35.5 16.6C35.5 15.55 34.45 14.5 33.4 14.5C33.1752 14.5 31.2329 14.5 29.1264 14.5M35.5 29.2C35.5 30.95 35.5 31.65 35.5 33.4C35.5 34.45 34.45 35.5 33.4 35.5C33.1778 35.5 31.278 35.5 29.2 35.5M14.5 29.2C14.5 30.95 14.5 31.65 14.5 33.4C14.5 34.45 15.55 35.5 16.6 35.5C16.8222 35.5 18.722 35.5 20.8 35.5M19.2046 22.1797C19.4571 21.6309 19.8738 21.1315 20.338 20.8736L23.698 19.0046C24.412 18.5951 25.588 18.5951 26.3125 19.0046L29.6725 20.8736C30.1226 21.1202 30.5219 21.5876 30.775 22.108M19.2046 22.1797C19.0458 22.5247 18.952 22.8892 18.952 23.2256V26.7851C18.952 27.6566 19.5715 28.7171 20.338 29.1371L23.698 31.0061C24.0547 31.2054 24.5266 31.3051 25 31.3053M19.2046 22.1797L25 25.525M25 31.3053C25.4742 31.3055 25.9499 31.2057 26.3125 31.0061L29.6725 29.1371C30.4285 28.7171 31.0585 27.6566 31.0585 26.7851V23.2256C31.0585 22.8658 30.9529 22.4738 30.775 22.108M25 31.3053V25.525M30.775 22.108L25 25.525" stroke="black" stroke-width="1.75" stroke-linecap="round" stroke-linejoin="round"/>
</g>
</g>
</svg>
