<svg width="50" height="50" viewBox="0 0 50 50" fill="none" xmlns="http://www.w3.org/2000/svg">
<g id="team">
<rect width="50" height="50" rx="25" fill="#FEBD1F" fill-opacity="0.2"/>
<g id="icon_62">
<path id="vector" d="M31.9999 34.3334C31.9999 31.9234 30.782 29.7978 28.928 28.5386C27.808 27.7779 26.4559 27.3334 24.9999 27.3334C21.1339 27.3334 17.9999 30.4674 17.9999 34.3334M31.0919 18.0001C31.0919 18.0001 33.3655 18.7846 33.1621 21.109C32.9588 23.4335 30.5835 23.8112 30.5835 23.8112M31.9999 27.3334C34.7187 28.2944 36.6666 30.8873 36.6666 33.9351M17.9999 27.3334C15.2811 28.2944 13.3333 30.8873 13.3333 33.9351M18.9079 18.0001C18.9079 18.0001 16.6343 18.7846 16.8377 21.109C17.0411 23.4335 19.4163 23.8112 19.4163 23.8112M28.4999 19.1667C28.4999 20.476 27.7811 21.6173 26.7165 22.2176C26.2093 22.5036 25.6237 22.6667 24.9999 22.6667C23.0669 22.6667 21.4999 21.0997 21.4999 19.1667C21.4999 17.2338 23.0669 15.6667 24.9999 15.6667C26.2392 15.6667 27.3281 16.3109 27.95 17.2826C28.2981 17.8265 28.4999 18.4731 28.4999 19.1667Z" stroke="#FEBD1F" stroke-width="1.75" stroke-linecap="round" stroke-linejoin="round"/>
</g>
</g>
</svg>
