<?xml version="1.0" standalone="no"?>
<!DOCTYPE svg PUBLIC "-//W3C//DTD SVG 20010904//EN"
 "http://www.w3.org/TR/2001/REC-SVG-20010904/DTD/svg10.dtd">
<svg version="1.0" xmlns="http://www.w3.org/2000/svg"
 width="1024.000000pt" height="1024.000000pt" viewBox="0 0 1024.000000 1024.000000"
 preserveAspectRatio="xMidYMid meet">

<g transform="translate(0.000000,1024.000000) scale(0.100000,-0.100000)"
fill="#000000" stroke="none">
<path d="M5035 8274 c-24 -13 -2096 -1388 -2625 -1742 -95 -63 -119 -85 -138
-122 -28 -55 -23 -108 15 -158 43 -57 68 -62 308 -62 l215 0 0 -997 c0 -930 1
-1000 18 -1032 9 -19 30 -44 45 -55 27 -20 44 -21 285 -24 l258 -3 -1 960 0
959 30 43 c17 24 50 57 74 74 l43 30 1521 3 c1088 2 1533 0 1560 -8 47 -14
111 -71 140 -124 l22 -41 3 -947 2 -948 234 0 c243 0 281 5 324 44 54 49 52
-2 52 1071 l0 995 211 0 c130 0 226 4 250 11 114 35 146 175 57 255 -21 20
-1779 1193 -2462 1644 l-279 185 -66 2 c-47 2 -75 -1 -96 -13z"/>
<path d="M4311 5773 l-654 -3 6 -362 c4 -199 7 -579 7 -845 l0 -483 1445 0
1445 0 0 850 0 850 -797 -2 c-439 -2 -1092 -4 -1452 -5z m1990 -452 c25 -31
24 -79 -3 -108 l-21 -23 -1159 0 -1159 0 -24 25 c-32 31 -33 80 -3 112 l22 23
1164 -2 1164 -3 19 -24z m-12 -577 c35 -45 26 -95 -20 -119 -24 -13 -187 -15
-1171 -15 -1210 1 -1161 -1 -1186 47 -18 33 -14 57 13 87 l24 26 1160 0 1160
0 20 -26z"/>
<path d="M3915 3670 c-218 -43 -375 -180 -441 -385 -23 -68 -27 -98 -27 -205
0 -109 3 -135 26 -206 33 -100 86 -183 161 -252 64 -58 173 -114 254 -131 75
-16 226 -13 301 4 243 58 416 279 424 543 l2 87 -285 0 -285 0 -3 -92 -3 -93
156 0 c175 0 172 2 135 -76 -29 -59 -96 -117 -166 -144 -76 -28 -203 -25 -276
7 -69 31 -131 94 -164 166 -27 58 -29 70 -29 192 0 127 1 132 33 197 59 120
159 182 297 182 122 0 213 -50 272 -151 22 -38 29 -43 52 -39 14 3 70 10 124
17 53 6 97 16 97 21 0 32 -74 142 -140 209 -81 82 -161 128 -258 148 -60 12
-197 13 -257 1z"/>
<path d="M1220 3075 l0 -586 113 3 112 3 5 377 5 378 101 -188 c56 -103 122
-225 147 -272 l45 -85 64 5 63 5 110 206 c60 113 126 232 145 265 l35 59 3
-377 2 -378 115 0 115 0 0 585 0 586 -136 -3 -136 -3 -95 -180 c-134 -256
-215 -409 -220 -418 -3 -4 -42 65 -89 155 -46 90 -116 226 -156 303 l-73 140
-137 3 -138 3 0 -586z"/>
<path d="M4951 3359 c-90 -29 -172 -110 -196 -192 -9 -32 -14 -61 -11 -64 3
-3 47 -12 98 -20 87 -14 93 -14 103 3 44 76 112 112 184 99 78 -15 118 -55
123 -127 l3 -33 -50 -2 c-130 -6 -271 -26 -319 -43 -116 -44 -179 -133 -179
-255 -1 -164 122 -264 312 -253 85 5 165 35 202 74 31 33 39 30 39 -16 l0 -41
108 3 107 3 0 330 0 330 -27 50 c-35 66 -80 108 -153 141 -52 24 -75 28 -170
31 -90 3 -121 -1 -174 -18z m305 -541 c-12 -92 -59 -142 -154 -168 -53 -14
-93 -6 -132 26 -36 31 -46 73 -26 112 26 51 111 78 255 81 l64 1 -7 -52z"/>
<path d="M6007 3366 c-52 -19 -111 -61 -127 -91 -18 -34 -24 -24 -21 35 l2 50
-109 0 -109 0 -7 -426 c-3 -234 -4 -429 -1 -435 4 -5 53 -9 111 -9 l104 0 1
103 c3 277 9 383 24 423 30 79 99 121 216 131 l69 6 0 113 0 114 -57 0 c-32
-1 -75 -7 -96 -14z"/>
<path d="M6505 3371 c-54 -13 -120 -47 -160 -82 -42 -37 -85 -118 -85 -161 0
-30 -3 -29 115 -48 64 -11 71 -10 80 7 6 10 26 34 45 54 75 78 220 55 260 -41
6 -15 10 -39 8 -52 -3 -22 -7 -23 -118 -30 -200 -12 -290 -39 -358 -109 -46
-47 -66 -95 -70 -172 -7 -118 50 -203 168 -248 99 -38 233 -20 329 45 l50 34
3 -37 3 -36 108 -3 107 -3 3 248 c3 372 2 404 -20 454 -41 91 -116 151 -222
175 -59 14 -196 17 -246 5z m265 -541 c0 -57 -21 -101 -65 -138 -101 -83 -255
-51 -255 52 0 81 84 122 258 125 l62 1 0 -40z"/>
<path d="M7393 3366 c-138 -45 -227 -147 -259 -295 -51 -241 34 -468 204 -544
111 -49 288 -27 386 48 l46 35 0 -43 c0 -152 -92 -247 -240 -247 -74 0 -143
27 -202 79 -58 51 -79 44 -133 -46 l-47 -77 33 -28 c183 -153 489 -170 662
-37 56 43 103 105 130 171 21 51 22 67 25 516 l3 463 -108 -3 -108 -3 -5 -43
-5 -44 -23 25 c-13 14 -51 37 -85 52 -74 34 -206 44 -274 21z m289 -222 c63
-44 91 -107 92 -202 0 -93 -14 -138 -57 -180 -92 -89 -236 -82 -315 14 -40 49
-56 109 -50 193 4 51 12 82 31 114 57 97 205 127 299 61z"/>
<path d="M8456 3370 c-111 -28 -237 -134 -291 -245 -81 -165 -45 -392 85 -529
153 -162 447 -169 614 -16 45 42 94 127 80 140 -5 4 -47 18 -94 30 l-86 22
-44 -45 c-71 -71 -158 -86 -246 -42 -58 29 -104 92 -104 142 l0 33 306 0 306
0 -3 113 c-4 103 -7 118 -36 178 -41 82 -111 150 -199 191 -56 26 -80 31 -158
34 -50 2 -108 -1 -130 -6z m181 -195 c63 -26 93 -64 108 -132 l7 -33 -191 0
c-182 0 -191 1 -191 19 0 113 150 195 267 146z"/>
<path d="M2493 3343 c4 -14 217 -551 330 -834 8 -21 5 -36 -20 -85 -34 -69
-71 -92 -158 -101 l-55 -6 0 -93 0 -93 36 -7 c139 -26 289 48 353 175 11 22
106 261 211 533 105 271 195 497 201 502 21 22 4 26 -110 26 -83 0 -122 -4
-129 -12 -5 -7 -51 -132 -102 -278 -51 -146 -96 -271 -100 -279 -5 -9 -12 1
-23 30 -23 66 -176 480 -188 512 l-11 27 -120 0 c-110 0 -120 -2 -115 -17z"/>
</g>
</svg>
